<svg width="430" height="430" viewBox="0 0 430 430" fill="none" xmlns="http://www.w3.org/2000/svg">
<path d="M269.131 179.79C271.171 175.93 273.021 172.42 274.641 169.37L281.231 156.91" stroke="#34D399" stroke-width="12" stroke-miterlimit="10" stroke-linecap="round" stroke-linejoin="round"/>
<path d="M157.031 283.13L101.691 253.86L130.881 197.38" stroke="#34D399" stroke-width="12" stroke-miterlimit="10" stroke-linecap="round" stroke-linejoin="round"/>
<path d="M157.041 140.23L162.081 129.22L170.091 114.08L176.681 101.62" stroke="#34D399" stroke-width="12" stroke-miterlimit="10" stroke-linecap="round" stroke-linejoin="round"/>
<path d="M208.572 275.6L202.512 287.32" stroke="#34D399" stroke-width="12" stroke-miterlimit="10" stroke-linecap="round" stroke-linejoin="round"/>
<path d="M170.082 114.07L211.672 35.42C215.272 28.62 223.702 26.02 230.512 29.62C238.142 33.66 241.062 43.11 237.022 50.75L196.222 127.9" stroke="#34D399" stroke-width="12" stroke-miterlimit="10" stroke-linecap="round" stroke-linejoin="round"/>
<path d="M222.361 141.72L265.141 60.83C268.741 54.03 277.171 51.43 283.981 55.03C291.611 59.07 294.531 68.52 290.491 76.16L248.501 155.55" stroke="#34D399" stroke-width="12" stroke-miterlimit="10" stroke-linecap="round" stroke-linejoin="round"/>
<path d="M248.502 155.54L279.182 97.52C283.002 90.3 291.942 87.55 299.162 91.36C306.382 95.18 309.132 104.12 305.322 111.34L274.642 169.36" stroke="#34D399" stroke-width="12" stroke-miterlimit="10" stroke-linecap="round" stroke-linejoin="round"/>
<path d="M196.221 127.89L244.781 36.08C248.601 28.86 257.541 26.11 264.761 29.92C271.981 33.74 274.731 42.68 270.921 49.9L222.361 141.71" stroke="#34D399" stroke-width="12" stroke-miterlimit="10" stroke-linecap="round" stroke-linejoin="round"/>
<path d="M130.881 197.38C115.281 181.86 105.911 161.15 104.551 139.19L101.711 93.38C101.701 93.16 101.691 92.94 101.691 92.71C101.691 87.42 105.671 82.9 111.001 82.29C125.801 80.61 139.061 91.46 140.351 106.29L143.121 138.15C143.121 138.15 148.921 138.4 157.041 140.23C163.681 141.73 171.871 144.29 179.731 148.63" stroke="#34D399" stroke-width="12" stroke-miterlimit="10" stroke-linecap="round" stroke-linejoin="round"/>
<path d="M301.841 238.85L287.281 212.56L272.721 186.27L269.131 179.79L262.441 167.7C260.671 164.5 257.201 162.83 253.781 163.21" stroke="#34D399" stroke-width="12" stroke-miterlimit="10" stroke-linecap="round" stroke-linejoin="round"/>
<path d="M210.541 244.76C210.541 244.76 211.831 259.16 208.571 275.6C207.641 280.29 206.341 285.15 204.531 289.88" stroke="#34D399" stroke-width="12" stroke-miterlimit="10" stroke-linecap="round" stroke-linejoin="round"/>
<path d="M301.841 238.85C308.401 258.61 306.641 279.55 303.541 307.93L335.561 339.38L275.431 401.62L238.501 369.39L219.221 352.15" stroke="#34D399" stroke-width="12" stroke-miterlimit="10" stroke-linecap="round" stroke-linejoin="round"/>
<path d="M241.701 208.45V208.43" stroke="#34D399" stroke-width="12" stroke-miterlimit="10" stroke-linecap="round" stroke-linejoin="round"/>
<path d="M225.15 167.35V167.34" stroke="#34D399" stroke-width="12" stroke-miterlimit="10" stroke-linecap="round" stroke-linejoin="round"/>
<path d="M233.68 154.8C234.25 154.39 234.85 154.01 235.48 153.65L236.58 153.03C240.69 150.7 245.75 151.61 248.81 154.96C249.3 155.49 249.74 156.1 250.12 156.76L253.78 163.21L264.37 181.85L266.42 184.91L283.91 211.03L292.31 235.14" stroke="#34D399" stroke-width="12" stroke-miterlimit="10" stroke-linecap="round" stroke-linejoin="round"/>
<path d="M271.03 240.81L264.43 206.8L260.09 196.88L246.87 166.69L246.56 166.41L233.68 154.8L221.62 143.92C219.65 142.14 217.18 141.26 214.72 141.26C211.89 141.26 209.08 142.42 207.04 144.68C206.73 145.03 206.43 145.38 206.15 145.74" stroke="#34D399" stroke-width="12" stroke-miterlimit="10" stroke-linecap="round" stroke-linejoin="round"/>
<path d="M210.541 244.76L206.211 209.02L194.551 180.35L185.461 171.45C176.571 162.75 176.421 148.49 185.121 139.61C189.111 135.53 195.651 135.47 199.721 139.46L222.391 161.66L241.161 200.65L244.151 245.08" stroke="#34D399" stroke-width="12" stroke-miterlimit="10" stroke-linecap="round" stroke-linejoin="round"/>
<path d="M243.201 351.06C225.071 357.06 205.831 348.13 205.831 348.13C187.711 340.6 176.921 324.2 168.371 306.54L150.531 269.72C148.361 265.23 150.081 259.83 154.451 257.43C166.081 251.04 177.311 256.04 186.771 267.3L206.261 292.09" stroke="#34D399" stroke-width="12" stroke-miterlimit="10" stroke-linecap="round" stroke-linejoin="round"/>
<path d="M64.9805 114.09C64.9805 114.09 9.90057 132.45 46.6205 191.85C46.6205 191.85 28.2605 210.21 42.3005 228.57C56.3405 246.93 73.6205 232.89 73.6205 232.89" stroke="#34D399" stroke-width="12" stroke-miterlimit="10" stroke-linecap="round" stroke-linejoin="round"/>
<path d="M123.3 322.53C123.3 322.53 120.06 366.81 162.18 357.09" stroke="#34D399" stroke-width="12" stroke-miterlimit="10" stroke-linecap="round" stroke-linejoin="round"/>
<path d="M327.42 170.25C327.42 170.25 370.62 179.97 352.26 217.77C352.26 217.77 419.22 226.41 380.34 281.49C380.34 281.49 420.3 320.37 371.7 333.33" stroke="#34D399" stroke-width="12" stroke-miterlimit="10" stroke-linecap="round" stroke-linejoin="round"/>
</svg>
